#!OML:ASF H:\Martial Arts Walks\Project 1\Capture day 1\Session 1\male.ASF
:FULLY-SPECIFIED
:DEGREES
1376
root -0.887767 14.2973 3.96481 7.25672 -7.64702 -5.29329
lowerback 17.5937 1.22026 -6.181
upperback 0.557443 0.682972 3.29557
thorax -9.42149 0.691172 6.98891
lowerneck -1.75698 1.05427 -5.90049
upperneck -4.92983 1.64285 5.39564
head -1.36091 0.856461 2.74735
rclavicle -3.18055e-014 1.0138e-014
rhumerus 20.9675 37.1524 -66.6499
rradius 56.6446
rwrist 13.3382
rhand -4.82334 -29.4516
rfingers 7.12502
rthumb 20.9631 -58.3387
lclavicle -3.18055e-014 1.0138e-014
lhumerus 99.0492 -51.1769 25.1627
lradius 116.679
lwrist 5.7653
lhand -19.4594 36.6554
lfingers 7.12502
lthumb 6.86166 -293.476
rfemur -48.4278 -8.3052 25.2765
rtibia 98.2487
rfoot -14.1686 -22.6545
rtoes 3.1313
lfemur -56.6978 17.8626 -27.1597
ltibia 79.3056
lfoot -18.1383 28.2836
ltoes -1.72516
1377
root -0.877379 14.3196 3.80148 7.58739 -8.66093 -5.55356
lowerback 17.2328 1.32149 -6.27758
upperback 0.47019 0.826409 3.3931
thorax -9.34372 0.766701 7.11407
lowerneck -2.01446 1.25163 -5.96212
upperneck -4.76272 1.9146 5.35602
head -1.27919 0.996719 2.74366
rclavicle 1.5704e-014 -2.10712e-014
rhumerus 21.7363 39.1273 -66.338
rradius 56.7462
rwrist 12.1379
rhand -3.71819 -29.5721
rfingers 7.12502
rthumb 22.0246 -58.338
lclavicle 1.5704e-014 -2.10712e-014
lhumerus 102.285 -49.0844 23.0469
lradius 116.529
lwrist -1.40749
lhand -20.9096 35.3051
lfingers 7.12502
lthumb 5.46164 -294.785
rfemur -45.395 -8.60621 24.1269
rtibia 98.1514
rfoot -13.7997 -22.9086
rtoes 4.9408
lfemur -57.5956 18.6065 -27.0822
ltibia 78.9643
lfoot -17.3103 27.9191
ltoes -1.58904
1378
root -0.869238 14.339 3.64168 7.88836 -9.74204 -5.79886
lowerback 16.942 1.42363 -6.3294
upperback 0.343452 0.970675 3.42979
thorax -9.34772 0.843706 7.14724
lowerneck -2.25119 1.4576 -6.02387
upperneck -4.56637 2.19843 5.37455
head -1.19371 1.14196 2.76037
rclavicle -1.04362e-014 3.81667e-014
rhumerus 22.5334 41.2195 -66.0262
rradius 56.9169
rwrist 11.0046
rhand -2.88047 -29.8081
rfingers 7.12502
rthumb 22.8287 -58.4771
lclavicle -1.04362e-014 3.81667e-014
lhumerus 104.677 -47.0466 21.4746
lradius 116.15
lwrist -8.00372
lhand -22.4908 34.1824
lfingers 7.12502
lthumb 3.93485 -295.874
rfemur -42.2509 -8.74217 22.8215
rtibia 97.6462
rfoot -13.1961 -22.9702
rtoes 6.81125
lfemur -58.4291 19.4003 -27.0028
ltibia 78.634
lfoot -16.5334 27.5837
ltoes -1.43941
1379
root -0.863131 14.3552 3.48493 8.15846 -10.8987 -6.03252
lowerback 16.6923 1.53217 -6.33869
upperback 0.192232 1.12469 3.41338
thorax -9.40145 0.924812 7.09509
lowerneck -2.46333 1.67189 -6.08078
upperneck -4.34173 2.49276 5.43389
head -1.10516 1.29161 2.7907
rclavicle 1.35174e-014 -1.59028e-015
rhumerus 23.4317 43.4408 -65.6361
rradius 57.1364
rwrist 10.018
rhand -2.3636 -30.1519
rfingers 7.12502
rthumb 23.3246 -58.7588
lclavicle 1.35174e-014 -1.59028e-015
lhumerus 106.379 -45.0801 20.2921
lradius 115.586
lwrist -13.8419
lhand -24.1572 33.5309
lfingers 7.12502
lthumb 2.32555 -296.502
rfemur -39.0365 -8.72167 21.4
rtibia 96.7398
rfoot -12.3528 -22.926
rtoes 8.73509
lfemur -59.2069 20.2568 -26.9243
ltibia 78.3238
lfoot -15.8073 27.2894
ltoes -1.26265
1380
root -0.858867 14.3681 3.33066 8.40179 -12.133 -6.26149
lowerback 16.4568 1.6538 -6.30318
upperback 0.0272761 1.30003 3.35367
thorax -9.47932 1.01406 6.96377
lowerneck -2.65145 1.89219 -6.12345
upperneck -4.08241 2.79313 5.51264
head -1.01069 1.44361 2.82564
rclavicle 2.10712e-014 -1.13307e-014
rhumerus 24.4972 45.7791 -65.0905
rradius 57.3896
rwrist 9.24389
rhand -2.14979 -30.5822
rfingers 7.12502
rthumb 23.5297 -59.163
lclavicle 2.10712e-014 -1.13307e-014
lhumerus 107.519 -43.1954 19.3769
lradius 114.883
lwrist -18.838
lhand -25.8252 33.4818
lfingers 7.12502
lthumb 0.714601 -296.54
rfemur -35.797 -8.57343 19.9046
rtibia 95.4425
rfoot -11.2936 -22.8715
rtoes 10.6914
lfemur -59.9429 21.1833 -26.8455
ltibia 78.0407
lfoot -15.1269 27.0441
ltoes -1.04391
1381
root -0.856283 14.3774 3.17825 8.62511 -13.4416 -6.49458
lowerback 16.2163 1.79477 -6.21415
upperback -0.144894 1.50826 3.2586
thorax -9.56405 1.11562 6.75416
lowerneck -2.82205 2.1152 -6.13609
upperneck -3.77584 3.09387 5.58956
head -0.904041 1.59519 2.85518
rclavicle 1.98785e-014 -1.90833e-014
rhumerus 25.7779 48.1961 -64.3299
rradius 57.6747
rwrist 8.71821
rhand -2.15166 -31.0781
rfingers 7.12502
rthumb 23.5279 -59.6591
lclavicle 1.98785e-014 -1.90833e-014
lhumerus 108.187 -41.4044 18.6426
lradius 114.094
lwrist -22.9893
lhand -27.3927 34.0088
lfingers 7.12502
lthumb -0.799375 -296.013
rfemur -32.5767 -8.3411 18.3732
rtibia 93.7703
rfoot -10.0724 -22.8992
rtoes 12.6333
lfemur -60.6525 22.1812 -26.7621
ltibia 77.79
lfoot -14.4848 26.8507
ltoes -0.769829
1382
root -0.855309 14.3833 3.02703 8.83837 -14.8154 -6.74261
lowerback 15.9675 1.95885 -6.05639
upperback -0.32687 1.75763 3.13269
thorax -9.65614 1.2326 6.46092
lowerneck -2.98532 2.33782 -6.09744
upperneck -3.40335 3.38955 5.64812
head -0.776256 1.74368 2.87005
rclavicle 2.57426e-014 1.35174e-014
rhumerus 27.2849 50.6373 -63.333
rradius 58.0093
rwrist 8.43416
rhand -2.23367 -31.6259
rfingers 7.12502
rthumb 23.4493 -60.217
lclavicle 2.57426e-014 1.35174e-014
lhumerus 108.436 -39.7311 18.0391
lradius 113.276
lwrist -26.3512
lhand -28.7576 34.9309
lfingers 7.12502
lthumb -2.1176 -295.1
rfemur -29.4172 -8.07516 16.8382
rtibia 91.7456
rfoot -8.77255 -23.0826
rtoes 14.5023
lfemur -61.3527 23.247 -26.666
ltibia 77.5755
lfoot -13.8745 26.7055
ltoes -0.430353
1383
root -0.855942 14.3855 2.87642 9.05107 -16.2424 -7.01649
lowerback 15.7106 2.14672 -5.81337
upperback -0.520518 2.052 2.97879
thorax -9.75568 1.36575 6.07738
lowerneck -3.15102 2.55775 -5.98944
upperneck -2.95388 3.67626 5.68087
head -0.621172 1.88719 2.86487
rclavicle 1.95803e-014 3.97569e-015
rhumerus 28.9978 53.0378 -62.1142
rradius 58.4319
rwrist 8.34518
rhand -2.24198 -32.2134
rfingers 7.12502
rthumb 23.4413 -60.8055
lclavicle 1.95803e-014 3.97569e-015
lhumerus 108.291 -38.2016 17.5444
lradius 112.49
lwrist -29.0296
lhand -29.8589 35.983
lfingers 7.12502
lthumb -3.18123 -294.061
rfemur -26.351 -7.82411 15.3238
rtibia 89.397
rfoot -7.49699 -23.457
rtoes 16.2206
lfemur -62.0557 24.373 -26.5466
ltibia 77.3988
lfoot -13.2911 26.5996
ltoes -0.0256779
1384
root -0.858246 14.3844 2.72574 9.27164 -17.7095 -7.32509
lowerback 15.4537 2.35576 -5.47453
upperback -0.728688 2.38918 2.79941
thorax -9.86678 1.51325 5.6016
lowerneck -3.32617 2.77397 -5.79891
upperneck -2.4256 3.95199 5.68764
head -0.436445 2.02501 2.83785
rclavicle -2.22639e-014 1.59028e-015
rhumerus 30.8535 55.3377 -60.7317
rradius 59.0003
rwrist 8.38263
rhand -2.03937 -32.8174
rfingers 7.12502
rthumb 23.6356 -61.3845
lclavicle -2.22639e-014 1.59028e-015
lhumerus 107.752 -36.8464 17.1602
lradius 111.787
lwrist -31.1741
lhand -30.6894 36.8959
lfingers 7.12502
lthumb -3.98322 -293.162
rfemur -23.4031 -7.62709 13.8464
rtibia 86.7586
rfoot -6.34619 -24.0045
rtoes 17.7077
lfemur -62.7677 25.5495 -26.3926
ltibia 77.2579
lfoot -12.7291 26.5215
ltoes 0.438253
1385
root -0.862352 14.3805 2.57432 9.50569 -19.2061 -7.67328
lowerback 15.2079 2.58105 -5.04175
upperback -0.953002 2.76177 2.59948
thorax -9.99352 1.67133 5.04263
lowerneck -3.51096 2.98672 -5.52351
upperneck -1.82915 4.21667 5.6743
head -0.225413 2.15751 2.7912
rclavicle 4.60187e-014 -4.29375e-014
rhumerus 32.7488 57.4923 -59.2814
rradius 59.7853
rwrist 8.47945
rhand -1.51892 -33.3964
rfingers 7.12502
rthumb 24.1347 -61.8982
lclavicle 4.60187e-014 -4.29375e-014
lhumerus 106.8 -35.6999 16.9094
lradius 111.204
lwrist -32.9533
lhand -31.2788 37.4425
lfingers 7.12502
lthumb -4.55236 -292.626
rfemur -20.5923 -7.50912 12.4156
rtibia 83.8698
rfoot -5.38387 -24.6504
rtoes 18.875
lfemur -63.4867 26.7659 -26.1942
ltibia 77.1457
lfoot -12.1793 26.4605
ltoes 0.945369
1386
root -0.868433 14.3743 2.42146 9.75529 -20.7253 -8.06054
lowerback 14.985 2.81621 -4.53026
upperback -1.19362 3.15847 2.38599
thorax -10.1396 1.83502 4.42002
lowerneck -3.69754 3.1974 -5.17294
upperneck -1.1854 4.4721 5.65123
head 0.00352845 2.2861 2.7306
rclavicle 1.98785e-015 -9.93923e-015
rhumerus 34.535 59.4787 -57.8998
rradius 60.8641
rwrist 8.59813
rhand -0.621227 -33.8893
rfingers 7.12502
rthumb 24.9952 -62.2742
lclavicle 1.98785e-015 -9.93923e-015
lhumerus 105.399 -34.7997 16.8268
lradius 110.762
lwrist -34.5598
lhand -31.708 37.5823
lfingers 7.12502
lthumb -4.96676 -292.496
rfemur -17.9338 -7.48088 11.0355
rtibia 80.7762
rfoot -4.61111 -25.2757
rtoes 19.624
lfemur -64.2018 28.0114 -25.9442
ltibia 77.0497
lfoot -11.6314 26.4084
ltoes 1.48101
